<?xml version="1.0" standalone="no"?>
<!DOCTYPE svg PUBLIC "-//W3C//DTD SVG 20010904//EN"
 "http://www.w3.org/TR/2001/REC-SVG-20010904/DTD/svg10.dtd">
<svg version="1.0" xmlns="http://www.w3.org/2000/svg"
 width="700.000000pt" height="700.000000pt" viewBox="0 0 700.000000 700.000000"
 preserveAspectRatio="xMidYMid meet">
<metadata>
Created by potrace 1.11, written by Peter Selinger 2001-2013
</metadata>
<g transform="translate(0.000000,700.000000) scale(0.100000,-0.100000)"
fill="#000000" stroke="none">
<path d="M875 4960 c0 -159 2 -290 5 -291 21 -4 3490 -3 3491 1 1 3 2 134 3
293 l1 287 -1750 0 -1750 0 0 -290z"/>
<path d="M4959 5223 c0 -16 0 -551 -1 -1190 0 -870 -3 -1163 -11 -1163 -7 0
-34 7 -61 15 -281 85 -628 -10 -841 -230 -174 -180 -257 -395 -250 -643 14
-470 398 -842 869 -843 50 0 109 3 131 6 273 44 504 205 639 447 26 46 65 140
71 168 2 8 8 33 13 55 6 22 13 63 17 90 3 28 6 653 6 1390 l1 1341 411 -1
c227 0 424 2 438 3 l25 4 0 289 0 289 -728 0 -728 0 -1 -27z"/>
<path d="M877 4075 c-2 -5 -3 -136 -3 -290 l1 -280 1750 -3 1750 -2 -1 287
c-1 159 -2 290 -3 293 -2 10 -3491 5 -3494 -5z"/>
<path d="M879 2916 c-3 -2 -5 -562 -2 -572 3 -8 340 -11 1168 -11 l1165 0 0
292 0 291 -1165 0 c-641 0 -1166 0 -1166 0z"/>
</g>
</svg>
